<?xml version="1.0" encoding="utf-8"?>
<!-- Generator: Adobe Illustrator 27.5.0, SVG Export Plug-In . SVG Version: 6.00 Build 0)  -->
<svg version="1.1" id="Layer_1" xmlns="http://www.w3.org/2000/svg" xmlns:xlink="http://www.w3.org/1999/xlink" x="0px" y="0px"
	 viewBox="0 0 1249.53 343.21" style="enable-background:new 0 0 1249.53 343.21;" xml:space="preserve">
<style type="text/css">
	.st0{fill-rule:evenodd;clip-rule:evenodd;fill:#3EACA6;}
	.st1{fill-rule:evenodd;clip-rule:evenodd;fill:#45B8AB;}
	.st2{fill-rule:evenodd;clip-rule:evenodd;fill:#157ABF;}
	.st3{fill:#197ABF;}
	.st4{fill:#45B8AB;}
</style>
<path class="st0" d="M139.55,64.07h12.33c6.23,0,11.28,5.05,11.28,11.28V185.7c0,6.23-5.05,11.28-11.28,11.28h-12.33
	c-6.23,0-11.28-5.05-11.28-11.28V75.35C128.27,69.12,133.32,64.07,139.55,64.07z"/>
<path class="st0" d="M29.94,143.98h12.33c6.23,0,11.28,5.05,11.28,11.28v30.44c0,6.23-5.05,11.28-11.28,11.28H29.94
	c-6.23,0-11.28-5.05-11.28-11.28v-30.44C18.67,149.03,23.72,143.98,29.94,143.98z"/>
<path class="st0" d="M84.75,105.84h12.33c6.23,0,11.28,5.05,11.28,11.28v68.59c0,6.23-5.05,11.28-11.28,11.28H84.75
	c-6.23,0-11.28-5.05-11.28-11.28v-68.59C73.47,110.89,78.52,105.84,84.75,105.84z"/>
<path class="st1" d="M29.72,143.57h12.33c6.23,0,11.28,5.05,11.28,11.28v12.33c0,6.23-5.05,11.28-11.28,11.28H29.72
	c-6.23,0-11.28-5.05-11.28-11.28v-12.33C18.44,148.62,23.49,143.57,29.72,143.57z"/>
<path class="st1" d="M84.64,105.05h12.33c6.23,0,11.28,5.05,11.28,11.28v12.33c0,6.23-5.05,11.28-11.28,11.28H84.64
	c-6.23,0-11.28-5.05-11.28-11.28v-12.33C73.36,110.1,78.41,105.05,84.64,105.05z"/>
<path class="st1" d="M139.55,64.07h12.33c6.23,0,11.28,5.05,11.28,11.28v12.33c0,6.23-5.05,11.28-11.28,11.28h-12.33
	c-6.23,0-11.28-5.05-11.28-11.28V75.35C128.27,69.12,133.32,64.07,139.55,64.07z"/>
<path class="st2" d="M163.68,37.84H18.46C8.26,37.84,0,46.1,0,56.3v141.32c0,10.19,8.26,18.46,18.46,18.46h145.22
	c10.19,0,18.46-8.26,18.46-18.46V56.3C182.13,46.1,173.87,37.84,163.68,37.84z M171.48,199.97c0,3.02-2.45,5.47-5.47,5.47H16.12
	c-3.02,0-5.47-2.45-5.47-5.47V53.95c0-3.02,2.45-5.47,5.47-5.47h149.89c3.02,0,5.47,2.45,5.47,5.47V199.97z"/>
<g>
	<path class="st3" d="M296.99,215.88c-3.4,0-7.45-0.12-12.16-0.35c-4.71-0.23-9.53-0.54-14.47-0.92c-4.94-0.38-9.61-0.81-14.01-1.27
		c-4.4-0.46-8.07-1-11-1.62v-14.08c3.86,0.31,8.57,0.62,14.13,0.92c5.56,0.31,11.54,0.54,17.95,0.69c6.4,0.16,12.7,0.23,18.87,0.23
		c6.95,0,13.2-0.69,18.76-2.08c5.56-1.38,9.99-3.92,13.31-7.62c3.32-3.69,4.98-9,4.98-15.92v-11.54c0-7.85-2.01-13.81-6.02-17.88
		c-4.02-4.07-10.5-6.11-19.45-6.11h-18.29c-14.05,0-25.05-3.08-33-9.23c-7.95-6.15-11.93-16.77-11.93-31.84v-9.69
		c0-16,4.32-27.38,12.97-34.15c8.64-6.77,20.84-10.15,36.59-10.15c4.94,0,10.5,0.27,16.67,0.81c6.17,0.54,12.16,1.15,17.95,1.85
		c5.79,0.69,10.61,1.42,14.47,2.19v14.08c-6.79-0.61-14.47-1.15-23.04-1.62c-8.57-0.46-16.64-0.69-24.2-0.69
		c-6.95,0-12.97,0.81-18.06,2.42s-8.99,4.46-11.69,8.54c-2.7,4.08-4.05,9.89-4.05,17.42v7.85c0,9.39,2.47,15.85,7.41,19.38
		c4.94,3.54,11.81,5.31,20.61,5.31h19.68c9.41,0,17.14,1.69,23.16,5.08c6.02,3.39,10.5,8.04,13.43,13.96
		c2.93,5.92,4.4,12.73,4.4,20.42v13.15c0,11.39-2.43,20.16-7.29,26.31c-4.86,6.16-11.35,10.38-19.45,12.69
		C316.1,214.73,307.03,215.88,296.99,215.88z"/>
	<path class="st3" d="M475.76,215.88c-12.97,0-23.2-1.92-30.68-5.77c-7.49-3.84-12.85-10.38-16.09-19.61s-4.86-21.84-4.86-37.84
		c0-16.3,1.66-29.04,4.98-38.19c3.32-9.15,8.76-15.58,16.33-19.27c7.56-3.69,17.75-5.54,30.57-5.54c10.96,0,19.87,1.23,26.75,3.69
		c6.87,2.46,11.96,6.66,15.28,12.58c3.32,5.92,4.98,14.12,4.98,24.58c0,7.23-1.43,13.04-4.28,17.42c-2.86,4.38-6.95,7.54-12.27,9.46
		c-5.33,1.93-11.62,2.88-18.87,2.88h-45.15c0.15,10,1.23,18.04,3.24,24.11c2,6.08,5.67,10.46,11,13.15
		c5.33,2.69,13.16,4.04,23.5,4.04h39.83v11.08c-7.1,0.92-14.05,1.69-20.84,2.31C492.35,215.57,484.55,215.88,475.76,215.88z
		 M442.18,148.27h44c6.95,0,12.08-1.27,15.4-3.81c3.32-2.54,4.98-7.11,4.98-13.73c0-7.07-1.04-12.58-3.13-16.5
		c-2.08-3.92-5.33-6.69-9.73-8.31c-4.4-1.62-10.3-2.42-17.71-2.42c-8.65,0-15.44,1.27-20.38,3.81c-4.94,2.54-8.42,7.04-10.42,13.5
		C443.18,127.27,442.18,136.42,442.18,148.27z"/>
	<path class="st3" d="M632.52,214.73c-7.1,0-13.05-1.27-17.83-3.81c-4.79-2.54-8.42-6.69-10.88-12.46
		c-2.47-5.77-3.7-13.58-3.7-23.42V38.43h18.29v134.3c0,7.38,0.69,12.96,2.08,16.73c1.39,3.77,3.39,6.38,6.02,7.85
		c2.62,1.46,5.71,2.42,9.26,2.88l12.5,1.38v13.15H632.52z"/>
	<path class="st3" d="M746.91,214.73c-7.1,0-13.05-1.27-17.83-3.81c-4.79-2.54-8.42-6.69-10.88-12.46
		c-2.47-5.77-3.71-13.58-3.71-23.42V38.43h18.29v134.3c0,7.38,0.7,12.96,2.08,16.73c1.39,3.77,3.39,6.38,6.02,7.85
		c2.62,1.46,5.71,2.42,9.26,2.88l12.5,1.38v13.15H746.91z"/>
	<path class="st3" d="M823.09,214.5v-13.85l71.32-94.38h-73.17v-15h94.48v13.85l-71.55,94.38h71.55v15H823.09z"/>
	<path class="st4" d="M1011.57,215.88c-9.42,0-17.06-2.77-22.92-8.31c-5.87-5.54-8.8-13.23-8.8-23.08v-11.08
		c0-9.38,3.32-17.11,9.96-23.19c6.64-6.08,16.98-9.11,31.03-9.11h31.72v-8.54c0-3.84-0.69-7.04-2.08-9.58
		c-1.39-2.54-3.98-4.38-7.76-5.54c-3.79-1.15-9.53-1.73-17.25-1.73h-37.28V95.89c6.02-1.85,13-3.46,20.96-4.85
		c7.95-1.38,17.56-2.08,28.83-2.08c10.34,0,19.18,1.23,26.51,3.69c7.33,2.46,12.89,6.69,16.67,12.69c3.78,6,5.67,14.31,5.67,24.92
		v84.23h-27.09l-5.56-13.15c-1.08,1.23-2.93,2.62-5.56,4.15c-2.63,1.54-5.83,3.12-9.61,4.73c-3.79,1.62-8.03,2.96-12.74,4.04
		C1021.57,215.34,1016.67,215.88,1011.57,215.88z M1028.94,192.11c1.54,0,3.28-0.19,5.21-0.58c1.93-0.38,3.94-0.84,6.02-1.38
		c2.08-0.54,4.01-1.07,5.79-1.62c1.77-0.54,3.24-1.04,4.4-1.5c1.16-0.46,1.89-0.77,2.2-0.92v-28.85l-20.84,1.38
		c-6.02,0.46-10.46,2-13.31,4.62c-2.86,2.62-4.28,6.15-4.28,10.62v5.08c0,3.08,0.65,5.62,1.97,7.62c1.31,2,3.09,3.43,5.33,4.27
		C1023.65,191.69,1026.16,192.11,1028.94,192.11z"/>
	<path class="st4" d="M1163.01,72.35c-3.24,0-4.86-1.54-4.86-4.62V45.12c0-3.23,1.62-4.85,4.86-4.85h26.4
		c1.39,0,2.47,0.46,3.24,1.38c0.77,0.92,1.16,2.08,1.16,3.46v22.61c0,3.08-1.47,4.62-4.4,4.62H1163.01z M1158.84,214.5V90.58h34.27
		V214.5H1158.84z"/>
</g>
<g>
	<path class="st3" d="M0.25,325.99v-51.72h5.62v51.72H0.25z"/>
	<path class="st3" d="M38.27,325.99v-37.53h4.36l1.19,4.15c1.78-1.26,3.87-2.38,6.25-3.34c2.39-0.96,4.87-1.44,7.45-1.44
		c2.76,0,4.99,0.59,6.68,1.76c1.69,1.17,2.93,2.72,3.72,4.64c0.8,1.92,1.19,4.01,1.19,6.25v25.51h-5.55v-24.88
		c0-1.59-0.32-3.01-0.95-4.25c-0.63-1.24-1.52-2.21-2.67-2.92c-1.15-0.7-2.57-1.05-4.25-1.05c-1.55,0-2.99,0.15-4.32,0.46
		c-1.33,0.31-2.6,0.73-3.79,1.26c-1.19,0.54-2.45,1.18-3.76,1.93v29.45H38.27z"/>
	<path class="st3" d="M113.68,325.99c-2.44,0-4.45-0.4-6.04-1.2c-1.59-0.8-2.77-2.08-3.51-3.87c-0.75-1.78-1.1-4.15-1.05-7.1
		l0.21-20.8H97.3v-3.58l6.04-0.98l0.91-10.47h4.29v10.47h10.82v4.57h-10.82v20.8c0,1.64,0.18,2.95,0.53,3.94
		c0.35,0.98,0.82,1.73,1.41,2.25c0.58,0.52,1.21,0.88,1.86,1.09c0.66,0.21,1.29,0.34,1.9,0.39l4.57,0.42v4.08H113.68z"/>
	<path class="st3" d="M163.01,326.42c-3.94,0-7.04-0.59-9.31-1.76c-2.27-1.17-3.9-3.16-4.88-5.97c-0.98-2.81-1.48-6.65-1.48-11.53
		c0-4.97,0.5-8.84,1.51-11.63c1.01-2.79,2.66-4.74,4.95-5.87c2.29-1.12,5.39-1.69,9.28-1.69c3.33,0,6.03,0.38,8.12,1.12
		c2.08,0.75,3.63,2.03,4.64,3.83c1.01,1.8,1.51,4.3,1.51,7.48c0,2.2-0.43,3.97-1.3,5.31c-0.87,1.34-2.11,2.3-3.72,2.88
		c-1.62,0.59-3.53,0.88-5.73,0.88h-13.7c0.05,3.05,0.37,5.49,0.98,7.34c0.61,1.85,1.72,3.19,3.34,4.01
		c1.62,0.82,3.99,1.23,7.13,1.23h12.09v3.37c-2.16,0.28-4.26,0.52-6.32,0.7C168.05,326.32,165.68,326.42,163.01,326.42z
		 M152.82,305.82h13.35c2.11,0,3.67-0.39,4.67-1.16c1.01-0.77,1.51-2.17,1.51-4.18c0-2.15-0.32-3.83-0.95-5.02
		c-0.63-1.2-1.62-2.04-2.95-2.53c-1.34-0.49-3.13-0.74-5.38-0.74c-2.62,0-4.69,0.39-6.18,1.16c-1.5,0.77-2.55,2.14-3.16,4.11
		C153.13,299.43,152.82,302.22,152.82,305.82z"/>
	<path class="st3" d="M218.18,326.06c-2.16,0-3.96-0.39-5.41-1.16c-1.45-0.77-2.55-2.04-3.3-3.79c-0.75-1.76-1.12-4.13-1.12-7.13
		v-41.6h5.55v40.9c0,2.25,0.21,3.95,0.63,5.1c0.42,1.15,1.03,1.94,1.83,2.39c0.8,0.45,1.73,0.74,2.81,0.88l3.79,0.42v4.01H218.18z"
		/>
	<path class="st3" d="M251.49,281.79c-0.75,0-1.12-0.37-1.12-1.12v-5.48c0-0.75,0.37-1.12,1.12-1.12h3.94
		c0.37,0,0.64,0.11,0.81,0.32c0.16,0.21,0.25,0.48,0.25,0.81v5.48c0,0.75-0.35,1.12-1.05,1.12H251.49z M250.65,325.99v-37.53h5.55
		v37.53H250.65z"/>
	<path class="st3" d="M297.73,343.21c-2.44,0-4.58-0.34-6.43-1.02c-1.85-0.68-3.3-1.71-4.36-3.09c-1.05-1.38-1.58-3.1-1.58-5.16
		v-1.69c0-2.16,0.6-3.96,1.79-5.41c1.19-1.45,2.71-2.54,4.53-3.27c1.83-0.73,3.7-1.09,5.62-1.09l1.41,2.25
		c-1.41,0-2.72,0.22-3.94,0.67c-1.22,0.45-2.21,1.16-2.99,2.14c-0.77,0.98-1.16,2.25-1.16,3.79v1.55c0,2.25,0.75,3.85,2.25,4.81
		c1.5,0.96,3.54,1.44,6.11,1.44h8.71c2.81,0,5.02-0.54,6.64-1.62c1.62-1.08,2.42-2.77,2.42-5.06v-1.41c0-1.31-0.26-2.44-0.77-3.37
		c-0.52-0.94-1.37-1.66-2.56-2.18c-1.19-0.52-2.87-0.77-5.02-0.77H297.1c-2.91,0-5.17-0.62-6.78-1.86
		c-1.62-1.24-2.42-2.85-2.42-4.81c0-1.87,0.55-3.35,1.65-4.43c1.1-1.08,2.66-1.83,4.67-2.25c-1.73-0.7-3.09-1.65-4.08-2.85
		c-0.98-1.19-1.66-2.48-2.04-3.86c-0.38-1.38-0.56-2.78-0.56-4.18c0-2.9,0.59-5.25,1.76-7.03c1.17-1.78,2.85-3.07,5.02-3.87
		c2.18-0.79,4.74-1.19,7.7-1.19h20.03v3.16l-8.43,0.7c0.61,0.42,1.29,0.97,2.04,1.65c0.75,0.68,1.39,1.64,1.93,2.88
		c0.54,1.24,0.81,2.94,0.81,5.09c0,1.92-0.41,3.75-1.23,5.48c-0.82,1.73-2.19,3.15-4.11,4.25c-1.92,1.1-4.57,1.65-7.94,1.65h-5.97
		c-1.97,0-3.53,0.29-4.67,0.88c-1.15,0.59-1.72,1.63-1.72,3.13c0,1.12,0.42,1.92,1.26,2.39c0.84,0.47,1.73,0.7,2.67,0.7h12.44
		c2.9,0,5.31,0.38,7.2,1.12c1.9,0.75,3.33,1.89,4.29,3.41c0.96,1.52,1.44,3.46,1.44,5.8v1.55c0,3.42-1.16,6.1-3.48,8.05
		c-2.32,1.94-5.77,2.92-10.37,2.92H297.73z M300.33,308.99h4.22c2.39,0,4.2-0.36,5.45-1.09c1.24-0.73,2.1-1.67,2.56-2.85
		c0.47-1.17,0.7-2.44,0.7-3.79c0-2.11-0.34-3.78-1.02-5.02c-0.68-1.24-1.63-2.13-2.85-2.67c-1.22-0.54-2.62-0.81-4.22-0.81h-4.01
		c-2.67,0-4.77,0.6-6.29,1.79c-1.52,1.2-2.28,3.27-2.28,6.22c0,2.91,0.69,5,2.07,6.29C296.06,308.34,297.94,308.99,300.33,308.99z"
		/>
	<path class="st3" d="M364.99,326.42c-3.94,0-7.04-0.59-9.31-1.76c-2.27-1.17-3.9-3.16-4.88-5.97c-0.98-2.81-1.48-6.65-1.48-11.53
		c0-4.97,0.5-8.84,1.51-11.63c1.01-2.79,2.66-4.74,4.95-5.87c2.29-1.12,5.39-1.69,9.28-1.69c3.33,0,6.03,0.38,8.12,1.12
		c2.08,0.75,3.63,2.03,4.64,3.83c1.01,1.8,1.51,4.3,1.51,7.48c0,2.2-0.43,3.97-1.3,5.31c-0.87,1.34-2.11,2.3-3.72,2.88
		c-1.62,0.59-3.53,0.88-5.73,0.88h-13.7c0.05,3.05,0.37,5.49,0.98,7.34c0.61,1.85,1.72,3.19,3.34,4.01
		c1.62,0.82,3.99,1.23,7.13,1.23h12.09v3.37c-2.16,0.28-4.26,0.52-6.32,0.7C370.02,326.32,367.66,326.42,364.99,326.42z
		 M353.95,281.65l8.57-9.49h3.94l7.73,9.49h-3.37l-6.47-6.82l-6.96,6.82H353.95z M354.8,305.82h13.35c2.11,0,3.67-0.39,4.67-1.16
		c1.01-0.77,1.51-2.17,1.51-4.18c0-2.15-0.32-3.83-0.95-5.02c-0.63-1.2-1.62-2.04-2.95-2.53c-1.33-0.49-3.13-0.74-5.38-0.74
		c-2.62,0-4.69,0.39-6.18,1.16c-1.5,0.77-2.55,2.14-3.16,4.11C355.1,299.43,354.8,302.22,354.8,305.82z"/>
	<path class="st3" d="M410.31,325.99v-37.53h4.36l1.19,4.15c1.78-1.26,3.87-2.38,6.25-3.34c2.39-0.96,4.87-1.44,7.45-1.44
		c2.76,0,4.99,0.59,6.68,1.76c1.69,1.17,2.93,2.72,3.72,4.64c0.8,1.92,1.19,4.01,1.19,6.25v25.51h-5.55v-24.88
		c0-1.59-0.32-3.01-0.95-4.25c-0.63-1.24-1.52-2.21-2.67-2.92c-1.15-0.7-2.56-1.05-4.25-1.05c-1.55,0-2.99,0.15-4.32,0.46
		c-1.33,0.31-2.6,0.73-3.79,1.26c-1.19,0.54-2.45,1.18-3.76,1.93v29.45H410.31z"/>
	<path class="st3" d="M486.92,326.42c-2.11,0-4.08-0.28-5.9-0.84s-3.42-1.55-4.78-2.95c-1.36-1.41-2.41-3.35-3.16-5.83
		c-0.75-2.48-1.12-5.64-1.12-9.49c0-3.89,0.35-7.09,1.05-9.59c0.7-2.51,1.71-4.46,3.02-5.87c1.31-1.41,2.9-2.39,4.78-2.95
		c1.87-0.56,3.96-0.84,6.25-0.84c1.87,0,3.91,0.08,6.11,0.25c2.2,0.16,4.31,0.41,6.33,0.74v3.3h-10.96c-2.39,0-4.4,0.4-6.04,1.19
		c-1.64,0.8-2.88,2.29-3.72,4.46c-0.84,2.18-1.27,5.33-1.27,9.45c0,3.98,0.44,7.03,1.33,9.13c0.89,2.11,2.15,3.55,3.79,4.32
		c1.64,0.77,3.63,1.16,5.97,1.16h11.46v3.23c-1.08,0.19-2.33,0.38-3.76,0.56c-1.43,0.19-2.94,0.33-4.53,0.42
		C490.17,326.37,488.55,326.42,486.92,326.42z"/>
	<path class="st3" d="M530.21,281.79c-0.75,0-1.12-0.37-1.12-1.12v-5.48c0-0.75,0.37-1.12,1.12-1.12h3.94
		c0.37,0,0.64,0.11,0.81,0.32c0.16,0.21,0.25,0.48,0.25,0.81v5.48c0,0.75-0.35,1.12-1.05,1.12H530.21z M529.36,325.99v-37.53h5.55
		v37.53H529.36z"/>
	<path class="st3" d="M574.55,326.42c-2.77,0-5.04-0.82-6.82-2.46c-1.78-1.64-2.67-3.96-2.67-6.96v-2.67c0-2.95,0.97-5.34,2.92-7.17
		c1.94-1.83,4.88-2.74,8.82-2.74h12.72v-4.64c0-1.55-0.27-2.87-0.81-3.97c-0.54-1.1-1.5-1.96-2.88-2.57
		c-1.38-0.61-3.39-0.91-6.01-0.91h-11.67v-3.3c1.64-0.28,3.55-0.54,5.73-0.77c2.18-0.23,4.74-0.35,7.7-0.35
		c3.04-0.05,5.58,0.33,7.59,1.12c2.01,0.8,3.5,2.05,4.46,3.76c0.96,1.71,1.44,3.95,1.44,6.71v26.49h-4.29l-1.05-4.29
		c-0.19,0.19-0.76,0.52-1.72,0.98c-0.96,0.47-2.18,1-3.65,1.58c-1.48,0.59-3.07,1.09-4.78,1.51
		C577.86,326.21,576.19,326.42,574.55,326.42z M576.87,322.27c0.84,0.05,1.8-0.05,2.88-0.28c1.08-0.23,2.18-0.5,3.3-0.81
		c1.12-0.3,2.17-0.62,3.13-0.95c0.96-0.33,1.75-0.61,2.35-0.84c0.61-0.23,0.94-0.35,0.98-0.35v-11.81l-11.46,0.49
		c-2.67,0.09-4.58,0.75-5.73,1.97c-1.15,1.22-1.72,2.79-1.72,4.71v1.69c0,1.5,0.32,2.71,0.95,3.62c0.63,0.91,1.43,1.56,2.39,1.93
		C574.91,322.01,575.88,322.22,576.87,322.27z"/>
	<path class="st3" d="M682.14,326.42c-3.94,0-7.04-0.59-9.31-1.76c-2.27-1.17-3.9-3.16-4.88-5.97c-0.98-2.81-1.48-6.65-1.48-11.53
		c0-4.97,0.5-8.84,1.51-11.63c1.01-2.79,2.66-4.74,4.95-5.87c2.29-1.12,5.39-1.69,9.28-1.69c3.33,0,6.03,0.38,8.12,1.12
		c2.08,0.75,3.63,2.03,4.64,3.83c1.01,1.8,1.51,4.3,1.51,7.48c0,2.2-0.43,3.97-1.3,5.31c-0.87,1.34-2.11,2.3-3.72,2.88
		c-1.62,0.59-3.53,0.88-5.73,0.88h-13.7c0.05,3.05,0.37,5.49,0.98,7.34c0.61,1.85,1.72,3.19,3.34,4.01
		c1.62,0.82,3.99,1.23,7.13,1.23h12.09v3.37c-2.16,0.28-4.26,0.52-6.33,0.7C687.18,326.32,684.81,326.42,682.14,326.42z
		 M671.95,305.82h13.35c2.11,0,3.67-0.39,4.67-1.16c1.01-0.77,1.51-2.17,1.51-4.18c0-2.15-0.32-3.83-0.95-5.02
		c-0.63-1.2-1.62-2.04-2.95-2.53c-1.34-0.49-3.13-0.74-5.38-0.74c-2.62,0-4.69,0.39-6.18,1.16c-1.5,0.77-2.55,2.14-3.16,4.11
		C672.26,299.43,671.95,302.22,671.95,305.82z"/>
	<path class="st3" d="M727.47,325.99v-37.53h4.36l1.19,4.15c1.87-1.31,3.97-2.44,6.29-3.37c2.32-0.94,4.91-1.41,7.77-1.41
		c2.34,0,4.34,0.53,6.01,1.58c1.66,1.05,2.92,2.38,3.76,3.97c1.17-0.84,2.59-1.69,4.25-2.53c1.66-0.84,3.44-1.56,5.34-2.14
		c1.9-0.58,3.74-0.88,5.52-0.88c2.72,0,4.94,0.57,6.68,1.72c1.73,1.15,3.01,2.69,3.83,4.64c0.82,1.95,1.23,4.11,1.23,6.5v25.3h-5.55
		v-24.88c0-1.59-0.32-3.01-0.95-4.25c-0.63-1.24-1.54-2.21-2.71-2.92c-1.17-0.7-2.6-1.05-4.29-1.05c-2.11,0-4.26,0.4-6.46,1.19
		c-2.2,0.8-4.24,1.76-6.11,2.88c0.23,0.7,0.41,1.39,0.53,2.07c0.12,0.68,0.18,1.39,0.18,2.14v24.81h-5.55v-24.88
		c0-1.59-0.32-3.01-0.95-4.25s-1.52-2.21-2.67-2.92c-1.15-0.7-2.57-1.05-4.25-1.05c-1.55,0-2.99,0.15-4.32,0.46
		c-1.33,0.31-2.6,0.73-3.79,1.26c-1.19,0.54-2.45,1.18-3.76,1.93v29.45H727.47z"/>
	<path class="st3" d="M871.12,325.99l-17.71-51.72h5.76l15.6,45.89l15.53-45.89h5.69l-17.71,51.72H871.12z"/>
	<path class="st3" d="M936.89,326.42c-3.94,0-7.04-0.59-9.31-1.76c-2.27-1.17-3.9-3.16-4.88-5.97c-0.98-2.81-1.48-6.65-1.48-11.53
		c0-4.97,0.5-8.84,1.51-11.63c1.01-2.79,2.66-4.74,4.95-5.87c2.29-1.12,5.39-1.69,9.28-1.69c3.33,0,6.03,0.38,8.12,1.12
		c2.08,0.75,3.63,2.03,4.64,3.83c1.01,1.8,1.51,4.3,1.51,7.48c0,2.2-0.43,3.97-1.3,5.31c-0.87,1.34-2.11,2.3-3.72,2.88
		c-1.62,0.59-3.53,0.88-5.73,0.88h-13.7c0.04,3.05,0.37,5.49,0.98,7.34c0.61,1.85,1.72,3.19,3.34,4.01
		c1.62,0.82,3.99,1.23,7.13,1.23h12.09v3.37c-2.16,0.28-4.26,0.52-6.33,0.7C941.93,326.32,939.56,326.42,936.89,326.42z
		 M926.7,305.82h13.35c2.11,0,3.67-0.39,4.67-1.16c1.01-0.77,1.51-2.17,1.51-4.18c0-2.15-0.32-3.83-0.95-5.02
		c-0.63-1.2-1.62-2.04-2.95-2.53c-1.33-0.49-3.13-0.74-5.38-0.74c-2.62,0-4.69,0.39-6.18,1.16c-1.5,0.77-2.55,2.14-3.16,4.11
		C927.01,299.43,926.7,302.22,926.7,305.82z"/>
	<path class="st3" d="M982.22,325.99v-37.53h4.36l1.19,4.15c1.78-1.26,3.87-2.38,6.25-3.34c2.39-0.96,4.87-1.44,7.45-1.44
		c2.76,0,4.99,0.59,6.68,1.76c1.69,1.17,2.93,2.72,3.72,4.64c0.8,1.92,1.2,4.01,1.2,6.25v25.51h-5.55v-24.88
		c0-1.59-0.32-3.01-0.95-4.25c-0.63-1.24-1.52-2.21-2.67-2.92c-1.15-0.7-2.56-1.05-4.25-1.05c-1.55,0-2.99,0.15-4.32,0.46
		c-1.33,0.31-2.6,0.73-3.79,1.26c-1.2,0.54-2.45,1.18-3.76,1.93v29.45H982.22z"/>
	<path class="st3" d="M1057.35,326.42c-3.09,0-5.63-0.67-7.62-2c-1.99-1.33-3.47-3.4-4.43-6.18s-1.44-6.36-1.44-10.72
		c0-4.64,0.47-8.4,1.41-11.28c0.94-2.88,2.44-4.98,4.5-6.29c2.06-1.31,4.83-1.97,8.29-1.97c2.11,0,4.17,0.23,6.18,0.7
		c2.01,0.47,3.79,0.98,5.34,1.55v-17.85h5.55v53.62h-4.5l-1.05-3.79c-0.7,0.61-1.75,1.24-3.13,1.9c-1.38,0.66-2.88,1.21-4.5,1.65
		C1060.33,326.19,1058.8,326.42,1057.35,326.42z M1058.96,321.85c2.15,0,4.11-0.34,5.87-1.02c1.76-0.68,3.34-1.39,4.74-2.14v-24.53
		c-1.69-0.51-3.3-0.95-4.85-1.3s-3.28-0.53-5.2-0.53c-2.39,0-4.33,0.45-5.83,1.33c-1.5,0.89-2.59,2.43-3.27,4.6
		c-0.68,2.18-1.02,5.19-1.02,9.03c0,3.47,0.32,6.28,0.95,8.43c0.63,2.16,1.65,3.71,3.06,4.67
		C1054.82,321.37,1056.67,321.85,1058.96,321.85z"/>
	<path class="st3" d="M1114.55,326.42c-2.76,0-5.04-0.82-6.82-2.46c-1.78-1.64-2.67-3.96-2.67-6.96v-2.67
		c0-2.95,0.97-5.34,2.92-7.17c1.94-1.83,4.88-2.74,8.82-2.74h12.72v-4.64c0-1.55-0.27-2.87-0.81-3.97c-0.54-1.1-1.5-1.96-2.88-2.57
		c-1.38-0.61-3.38-0.91-6.01-0.91h-11.67v-3.3c1.64-0.28,3.55-0.54,5.73-0.77c2.18-0.23,4.74-0.35,7.7-0.35
		c3.04-0.05,5.58,0.33,7.59,1.12c2.01,0.8,3.5,2.05,4.46,3.76c0.96,1.71,1.44,3.95,1.44,6.71v26.49h-4.29l-1.05-4.29
		c-0.19,0.19-0.76,0.52-1.72,0.98c-0.96,0.47-2.18,1-3.65,1.58c-1.48,0.59-3.07,1.09-4.78,1.51
		C1117.87,326.21,1116.19,326.42,1114.55,326.42z M1116.87,322.27c0.84,0.05,1.8-0.05,2.88-0.28c1.08-0.23,2.18-0.5,3.3-0.81
		c1.12-0.3,2.17-0.62,3.13-0.95c0.96-0.33,1.75-0.61,2.35-0.84c0.61-0.23,0.94-0.35,0.98-0.35v-11.81l-11.46,0.49
		c-2.67,0.09-4.58,0.75-5.73,1.97c-1.15,1.22-1.72,2.79-1.72,4.71v1.69c0,1.5,0.32,2.71,0.95,3.62s1.43,1.56,2.39,1.93
		C1114.92,322.01,1115.89,322.22,1116.87,322.27z"/>
	<path class="st3" d="M1180.12,326.42c-0.94,0-2.09-0.03-3.44-0.07c-1.36-0.05-2.78-0.12-4.25-0.21c-1.48-0.1-2.81-0.2-4.01-0.32
		c-1.2-0.12-2.12-0.25-2.78-0.39v-3.37h15.39c1.55,0,2.88-0.12,4-0.35c1.12-0.23,2-0.75,2.64-1.55c0.63-0.79,0.95-1.99,0.95-3.58
		v-1.69c0-1.64-0.54-2.92-1.62-3.83c-1.08-0.91-2.81-1.37-5.2-1.37h-5.27c-2.2,0-4.16-0.28-5.87-0.84
		c-1.71-0.56-3.03-1.52-3.97-2.88c-0.94-1.36-1.41-3.23-1.41-5.62v-1.97c0-2.34,0.46-4.26,1.37-5.76c0.91-1.5,2.34-2.62,4.29-3.37
		c1.94-0.75,4.46-1.12,7.55-1.12c1.31,0,2.82,0.05,4.53,0.14c1.71,0.09,3.38,0.22,5.02,0.39c1.64,0.17,2.97,0.34,4.01,0.53v3.37
		h-14.48c-2.39,0-4.23,0.4-5.52,1.19c-1.29,0.8-1.93,2.34-1.93,4.64v1.55c0,1.45,0.3,2.54,0.91,3.27c0.61,0.73,1.46,1.21,2.57,1.44
		c1.1,0.24,2.38,0.35,3.83,0.35h5.34c3.42,0,6.07,0.8,7.94,2.39c1.87,1.59,2.81,3.89,2.81,6.89v2.6c0,2.53-0.57,4.49-1.72,5.87
		c-1.15,1.38-2.72,2.34-4.71,2.88C1185.12,326.14,1182.79,326.42,1180.12,326.42z"/>
</g>
<g>
	<path class="st3" d="M1226.04,36.75c-1.88,0-3.51-0.38-4.92-1.13s-2.6-1.77-3.59-3.04c-0.99-1.27-1.79-2.7-2.41-4.29
		c-0.62-1.59-1.07-3.25-1.36-5c-0.28-1.74-0.43-3.41-0.43-5.02c0-2.18,0.18-4.34,0.55-6.5c0.37-2.16,1.01-4.12,1.93-5.9
		c0.92-1.77,2.21-3.2,3.87-4.27c1.66-1.07,3.77-1.61,6.35-1.61h11.95c1.97,0,3.65,0.38,5.02,1.13s2.49,1.77,3.34,3.06
		c0.85,1.29,1.51,2.73,1.98,4.32c0.47,1.59,0.79,3.23,0.95,4.92c0.17,1.69,0.25,3.31,0.25,4.84c0,2.68-0.25,5.15-0.75,7.4
		c-0.5,2.26-1.24,4.22-2.21,5.87c-0.97,1.66-2.17,2.94-3.59,3.84c-1.42,0.9-3.09,1.36-5,1.36H1226.04z M1226.04,34.59h11.75
		c1.77,0,3.37-0.58,4.79-1.76c1.42-1.17,2.54-2.96,3.36-5.37s1.23-5.47,1.23-9.19c0-2.11-0.14-4.12-0.43-6.05
		c-0.28-1.92-0.77-3.64-1.46-5.15c-0.69-1.51-1.62-2.7-2.81-3.59c-1.19-0.89-2.69-1.33-4.49-1.33h-11.95
		c-1.31,0-2.58,0.25-3.82,0.75c-1.24,0.5-2.33,1.36-3.29,2.56c-0.95,1.21-1.73,2.85-2.33,4.92c-0.6,2.08-0.9,4.7-0.9,7.88
		c-0.03,1.98,0.15,3.93,0.55,5.87c0.4,1.94,1.03,3.7,1.88,5.27c0.85,1.57,1.94,2.83,3.26,3.77
		C1222.71,34.12,1224.26,34.59,1226.04,34.59z M1223.83,29.07V7.63h9.09c1.11,0,2.14,0.17,3.11,0.5c0.97,0.33,1.76,0.97,2.36,1.91
		c0.6,0.94,0.9,2.31,0.9,4.12c0,1.27-0.16,2.28-0.48,3.04c-0.32,0.75-0.73,1.31-1.23,1.66c-0.5,0.35-1.03,0.6-1.58,0.75
		c-0.55,0.15-1.06,0.26-1.53,0.33l5.12,9.14h-2.41l-5.02-9.14l-5.97-0.2v9.34H1223.83z M1226.19,18.07h6.83
		c1.27,0,2.24-0.23,2.91-0.7c0.67-0.47,1-1.52,1-3.16c0-1.71-0.35-2.87-1.05-3.49c-0.7-0.62-1.66-0.93-2.86-0.93h-6.83V18.07z"/>
</g>
</svg>
