<?xml version="1.0" standalone="no"?>
<!DOCTYPE svg PUBLIC "-//W3C//DTD SVG 20010904//EN"
 "http://www.w3.org/TR/2001/REC-SVG-20010904/DTD/svg10.dtd">
<svg version="1.0" xmlns="http://www.w3.org/2000/svg"
 width="1251.000000pt" height="344.000000pt" viewBox="0 0 1251.000000 344.000000"
 preserveAspectRatio="xMidYMid meet">

<g transform="translate(0.000000,344.000000) scale(0.100000,-0.100000)"
fill="#000000" stroke="none">
<path d="M12202 3414 c-39 -27 -55 -73 -55 -154 0 -139 47 -190 178 -190 132
0 170 43 170 190 -1 91 -18 140 -54 160 -32 17 -213 13 -239 -6z m230 -8 c43
-32 64 -172 37 -243 -24 -63 -44 -73 -144 -73 -86 0 -94 2 -119 26 -67 67 -59
250 13 289 34 19 189 20 213 1z"/>
<path d="M12252 3253 c1 -60 3 -87 5 -60 4 46 5 47 38 47 30 0 37 -6 61 -45
31 -54 44 -53 16 0 l-19 37 25 25 c18 18 22 30 17 51 -9 39 -32 52 -92 52
l-53 0 2 -107z m116 75 c19 -19 14 -56 -8 -68 -12 -6 -38 -10 -58 -8 -36 3
-37 4 -40 46 l-3 42 48 0 c27 0 54 -5 61 -12z"/>
<path d="M115 3046 c-38 -17 -70 -48 -92 -89 -17 -30 -18 -85 -18 -787 0 -694
1 -758 17 -786 24 -44 72 -81 118 -94 26 -7 289 -10 792 -8 718 3 755 4 791
22 22 11 51 37 65 59 l27 41 3 745 c2 500 0 758 -7 782 -15 51 -48 88 -95 110
-39 18 -82 19 -806 18 -619 0 -771 -2 -795 -13z m1589 -108 c14 -20 16 -109
16 -768 0 -629 -2 -749 -14 -766 -14 -18 -35 -19 -782 -22 -677 -2 -770 -1
-790 13 l-24 15 0 760 c0 676 2 760 16 774 14 14 99 16 789 16 l774 0 15 -22z"/>
<path d="M6012 2303 c3 -682 5 -763 20 -808 26 -77 71 -130 136 -162 50 -25
69 -28 184 -31 l128 -4 0 65 0 65 -72 7 c-126 12 -178 45 -203 129 -13 42 -15
163 -15 773 l0 723 -90 0 -91 0 3 -757z"/>
<path d="M7152 2303 c3 -682 5 -763 20 -808 26 -77 71 -130 136 -162 50 -25
69 -28 184 -31 l128 -4 0 65 0 65 -72 7 c-126 12 -178 45 -203 129 -13 42 -15
163 -15 773 l0 723 -90 0 -91 0 3 -757z"/>
<path d="M2779 2996 c-249 -53 -341 -199 -326 -521 8 -178 41 -262 128 -325
86 -62 133 -72 370 -80 183 -7 223 -11 261 -28 101 -44 132 -118 126 -301 -4
-144 -24 -188 -106 -238 -84 -50 -153 -57 -484 -50 l-288 6 0 -64 c0 -61 1
-64 28 -69 59 -13 225 -26 392 -32 275 -10 429 27 526 125 78 77 104 168 104
357 0 236 -58 353 -209 422 -52 24 -69 26 -266 33 -115 4 -228 12 -251 18 -60
16 -106 51 -134 101 -23 41 -25 56 -25 165 0 147 15 205 66 256 61 61 116 74
314 74 94 0 227 -3 298 -8 l127 -7 0 65 c0 43 -4 67 -12 70 -35 13 -281 36
-418 40 -110 3 -174 1 -221 -9z"/>
<path d="M4643 2540 c-105 -11 -193 -44 -247 -92 -59 -51 -89 -103 -118 -203
-21 -74 -23 -99 -23 -325 0 -225 2 -251 23 -323 12 -43 31 -96 42 -117 40 -79
119 -137 225 -167 102 -29 419 -27 618 4 l37 6 0 53 0 54 -250 0 c-267 0 -329
7 -398 47 -78 44 -118 140 -124 293 l-3 75 295 6 c319 6 343 9 411 62 80 61
111 167 91 312 -27 207 -118 289 -345 314 -105 12 -127 12 -234 1z m275 -145
c100 -30 140 -90 149 -227 5 -65 2 -83 -16 -121 -38 -78 -53 -81 -365 -85
l-269 -3 6 104 c17 268 91 345 338 346 67 1 124 -5 157 -14z"/>
<path d="M8220 2460 l0 -70 365 0 c201 0 365 -3 365 -7 0 -5 -160 -219 -355
-477 l-355 -469 0 -68 0 -69 460 0 460 0 0 75 0 75 -356 2 -355 3 355 469 356
469 0 69 0 68 -470 0 -470 0 0 -70z"/>
<path d="M3597 675 c-44 -52 -29 -61 20 -13 l33 32 33 -32 c49 -48 64 -39 20
13 -20 25 -44 45 -53 45 -8 -1 -32 -21 -53 -45z"/>
<path d="M2090 480 c0 -150 4 -238 11 -254 20 -44 129 -66 129 -26 0 15 -7 20
-29 20 -59 0 -61 8 -61 261 l0 229 -25 0 -25 0 0 -230z"/>
<path d="M10700 624 l0 -86 -42 9 c-131 25 -189 -5 -209 -111 -11 -63 -5 -141
16 -193 25 -61 111 -80 192 -43 42 18 42 18 48 -1 4 -10 15 -19 26 -19 18 0
19 10 19 265 l0 265 -25 0 c-25 0 -25 -1 -25 -86z m-11 -119 c7 -4 11 -53 11
-131 l0 -125 -35 -15 c-54 -22 -112 -18 -140 10 -55 55 -39 252 22 270 23 6
128 0 142 -9z"/>
<path d="M2517 693 c-4 -3 -7 -19 -7 -35 0 -24 4 -28 30 -28 28 0 30 3 30 35
0 30 -3 35 -23 35 -13 0 -27 -3 -30 -7z"/>
<path d="M5297 693 c-4 -3 -7 -19 -7 -35 0 -24 4 -28 30 -28 28 0 30 3 30 35
0 30 -3 35 -23 35 -13 0 -27 -3 -30 -7z"/>
<path d="M10 435 l0 -255 25 0 25 0 0 255 0 255 -25 0 -25 0 0 -255z"/>
<path d="M8541 683 c2 -5 42 -120 88 -256 l85 -247 32 0 c21 0 34 6 39 18 13
34 165 481 165 487 0 3 -11 5 -23 5 -22 0 -29 -17 -97 -217 -40 -120 -76 -222
-80 -226 -4 -4 -40 93 -82 215 -72 214 -76 223 -103 226 -15 2 -26 0 -24 -5z"/>
<path d="M1046 638 c-3 -13 -6 -37 -6 -55 0 -27 -4 -32 -27 -35 -17 -2 -29
-10 -31 -20 -3 -14 3 -18 27 -18 l31 0 0 -136 c0 -74 4 -144 10 -154 12 -22
60 -40 106 -40 27 0 34 4 34 20 0 15 -7 20 -29 20 -16 0 -39 9 -52 19 -23 18
-24 27 -27 145 l-4 126 56 0 c49 0 56 3 56 19 0 17 -8 20 -52 23 l-53 3 -3 53
c-3 55 -24 73 -36 30z"/>
<path d="M507 546 c-20 -8 -44 -19 -53 -26 -13 -11 -16 -10 -21 8 -3 13 -13
22 -24 22 -18 0 -19 -10 -19 -185 l0 -185 25 0 25 0 0 151 0 150 35 15 c19 7
54 14 79 14 36 0 48 -5 65 -26 19 -24 21 -40 21 -165 l0 -139 25 0 25 0 0 143
c0 115 -3 149 -18 177 -29 58 -86 74 -165 46z"/>
<path d="M1579 551 c-75 -23 -94 -61 -93 -191 1 -142 37 -180 171 -180 81 0
113 8 113 26 0 11 -20 14 -89 14 -108 0 -136 17 -147 88 l-7 42 91 0 c50 0
102 5 116 11 48 22 58 103 21 156 -25 36 -113 53 -176 34z m131 -51 c23 -23
28 -88 8 -108 -8 -8 -45 -12 -101 -12 l-90 0 7 48 c8 65 40 92 107 92 36 0 54
-5 69 -20z"/>
<path d="M3599 551 c-75 -23 -94 -61 -93 -191 1 -142 37 -180 171 -180 81 0
113 8 113 26 0 11 -20 14 -89 14 -108 0 -136 17 -147 88 l-7 42 91 0 c50 0
102 5 116 11 48 22 58 103 21 156 -25 36 -113 53 -176 34z m131 -51 c23 -23
28 -88 8 -108 -8 -8 -45 -12 -101 -12 l-90 0 7 48 c8 65 40 92 107 92 36 0 54
-5 69 -20z"/>
<path d="M4227 546 c-20 -8 -44 -19 -53 -26 -13 -11 -16 -10 -21 8 -3 13 -13
22 -24 22 -18 0 -19 -10 -19 -185 l0 -185 25 0 25 0 0 151 0 150 35 15 c19 7
54 14 79 14 36 0 48 -5 65 -26 19 -24 21 -40 21 -165 l0 -139 25 0 25 0 0 143
c0 115 -3 149 -18 177 -29 58 -86 74 -165 46z"/>
<path d="M4823 551 c-61 -16 -86 -53 -97 -141 -10 -80 8 -159 44 -194 23 -23
40 -30 84 -34 75 -6 146 5 146 24 0 11 -18 14 -85 14 -97 0 -116 11 -134 77
-23 80 -7 169 36 203 21 16 40 20 99 20 59 0 74 3 74 15 0 9 -9 15 -24 15 -13
0 -43 2 -67 4 -24 3 -59 1 -76 -3z"/>
<path d="M5723 553 c-20 -2 -33 -10 -33 -19 0 -11 17 -14 80 -14 73 0 83 -3
105 -25 18 -17 25 -35 25 -64 l0 -39 -101 -4 c-124 -4 -139 -16 -139 -108 0
-51 3 -61 26 -79 33 -26 81 -26 154 -1 57 19 70 18 70 -6 0 -8 9 -14 21 -14
20 0 20 4 17 160 -3 157 -3 160 -29 186 -23 23 -37 27 -95 29 -38 2 -84 1
-101 -2z m175 -245 l-3 -62 -59 -18 c-32 -10 -69 -15 -83 -12 -36 9 -57 47
-49 90 9 45 46 63 134 64 l63 0 -3 -62z"/>
<path d="M6769 551 c-75 -23 -94 -61 -93 -191 1 -142 37 -180 171 -180 81 0
113 8 113 26 0 11 -20 14 -89 14 -108 0 -136 17 -147 88 l-7 42 91 0 c50 0
102 5 116 11 48 22 58 103 21 156 -25 36 -113 53 -176 34z m131 -51 c23 -23
28 -88 8 -108 -8 -8 -45 -12 -101 -12 l-90 0 7 48 c8 65 40 92 107 92 36 0 54
-5 69 -20z"/>
<path d="M7397 546 c-20 -7 -44 -19 -53 -26 -13 -11 -16 -10 -21 8 -3 13 -13
22 -24 22 -18 0 -19 -10 -19 -185 l0 -185 25 0 25 0 0 151 0 150 35 15 c19 7
54 14 79 14 36 0 48 -5 65 -26 19 -24 21 -40 21 -165 l0 -139 25 0 26 0 -2
147 -1 146 33 18 c47 25 123 25 149 -1 18 -18 20 -33 20 -165 l0 -145 26 0 25
0 -3 160 c-3 159 -3 160 -31 187 -37 37 -110 39 -180 4 l-48 -23 -24 22 c-30
28 -96 35 -148 16z"/>
<path d="M9319 551 c-75 -23 -94 -61 -93 -191 1 -142 37 -180 171 -180 81 0
113 8 113 26 0 11 -20 14 -89 14 -108 0 -136 17 -147 88 l-7 42 91 0 c50 0
102 5 116 11 48 22 58 103 21 156 -25 36 -113 53 -176 34z m131 -51 c23 -23
28 -88 8 -108 -8 -8 -45 -12 -101 -12 l-90 0 7 48 c8 65 40 92 107 92 36 0 54
-5 69 -20z"/>
<path d="M9947 546 c-20 -8 -44 -19 -53 -26 -13 -11 -16 -10 -21 8 -3 13 -13
22 -24 22 -18 0 -19 -10 -19 -185 l0 -185 25 0 25 0 0 151 0 150 35 15 c19 7
54 14 79 14 36 0 48 -5 65 -26 19 -24 21 -40 21 -165 l0 -139 25 0 25 0 0 143
c0 115 -3 149 -18 177 -29 58 -86 74 -165 46z"/>
<path d="M11123 553 c-20 -2 -33 -10 -33 -19 0 -11 17 -14 80 -14 73 0 83 -3
105 -25 18 -17 25 -35 25 -64 l0 -39 -101 -4 c-124 -4 -139 -16 -139 -108 0
-51 3 -61 26 -79 33 -26 81 -26 154 -1 57 19 70 18 70 -6 0 -8 9 -14 21 -14
20 0 20 4 17 160 -3 157 -3 160 -29 186 -23 23 -37 27 -95 29 -38 2 -84 1
-101 -2z m175 -245 l-3 -62 -59 -18 c-32 -10 -69 -15 -83 -12 -36 9 -57 47
-49 90 9 45 46 63 134 64 l63 0 -3 -62z"/>
<path d="M11736 550 c-55 -11 -76 -40 -76 -105 0 -73 27 -95 114 -95 83 0 110
-15 114 -63 5 -61 -6 -67 -124 -67 -82 0 -104 -3 -104 -14 0 -19 32 -26 116
-26 81 0 130 14 144 40 6 10 10 40 10 65 0 25 -4 55 -10 65 -13 24 -62 40
-127 40 -75 0 -93 12 -93 60 0 57 24 70 132 70 72 0 88 3 88 15 0 11 -12 15
-44 15 -24 0 -56 2 -72 4 -16 3 -47 1 -68 -4z"/>
<path d="M2520 365 l0 -185 25 0 25 0 0 185 0 185 -25 0 -25 0 0 -185z"/>
<path d="M2928 534 c-36 -19 -48 -43 -48 -94 0 -47 21 -94 47 -104 14 -6 12
-10 -15 -26 -35 -22 -42 -52 -17 -86 13 -19 12 -23 -10 -44 -36 -34 -35 -107
1 -141 22 -21 37 -24 115 -28 166 -6 209 17 209 112 0 91 -15 101 -152 107
-115 5 -138 11 -138 35 0 31 30 45 98 45 107 0 162 39 162 115 0 17 -9 44 -19
62 l-20 31 35 6 c73 14 30 26 -93 26 -93 -1 -135 -5 -155 -16z m182 -39 c28
-25 28 -97 0 -125 -16 -16 -33 -20 -84 -20 -58 0 -67 3 -85 26 -21 27 -27 67
-15 99 17 44 143 58 184 20z m39 -319 c23 -21 28 -65 11 -96 -20 -37 -138 -52
-210 -27 -63 22 -68 105 -7 133 48 21 178 15 206 -10z"/>
<path d="M5300 365 l0 -185 25 0 25 0 0 185 0 185 -25 0 -25 0 0 -185z"/>
</g>
</svg>
